<?xml version="1.0" encoding="UTF-8" standalone="no"?>
<svg xmlns:dc="http://purl.org/dc/elements/1.1/" xmlns:cc="http://creativecommons.org/ns#"
    xmlns:rdf="http://www.w3.org/1999/02/22-rdf-syntax-ns#" xmlns:svg="http://www.w3.org/2000/svg"
    xmlns="http://www.w3.org/2000/svg" viewBox="0 0 2666.6667 2666.6667" height="2666.6667"
    width="2666.6667"
    xml:space="preserve" id="svg2" version="1.1">
  <metadata id="metadata8">
    <rdf:RDF>
      <cc:Work rdf:about="">
        <dc:format>image/svg+xml</dc:format>
        <dc:type rdf:resource="http://purl.org/dc/dcmitype/StillImage" />
      </cc:Work>
    </rdf:RDF>
  </metadata>
  <defs id="defs6" />
  <g xmlns="http://www.w3.org/2000/svg" transform="matrix(1.3333333,0,0,-1.3333333,0,2666.6667)"
    id="g10">
    <g transform="scale(0.1)" id="g12">


      <path id="path40" style="fill:#687b8a;fill-opacity:1;fill-rule:nonzero;stroke:none"
        d="m 13911,4733.1 c -205.1,0 -371.8,167.2 -371.8,372.3 0,205.1 166.7,371.8 371.8,371.8 205.1,0 371.8,-166.7 371.8,-371.8 0,-205.1 -166.7,-372.3 -371.8,-372.3 z m 0,936.4 c -311,0 -564.1,-253.1 -564.1,-564.1 0,-311.5 253.1,-564.6 564.1,-564.6 311.1,0 564.1,253.1 564.1,564.6 0,311 -253,564.1 -564.1,564.1" />
      <path id="path42" style="fill:#687b8a;fill-opacity:1;fill-rule:nonzero;stroke:none"
        d="m 8896.15,4733.1 c -205.1,0 -371.82,167.2 -371.82,372.3 0,205.1 166.72,371.8 371.82,371.8 205.11,0 371.83,-166.7 371.83,-371.8 0,-205.1 -166.72,-372.3 -371.83,-372.3 z m 0,936.4 c -311.04,0 -564.13,-253.1 -564.13,-564.1 0,-311.5 253.09,-564.6 564.13,-564.6 311.06,0 564.14,253.1 564.14,564.6 0,311 -253.08,564.1 -564.14,564.1" />
      <path id="path44" style="fill:#fdc00f;fill-opacity:1;fill-rule:nonzero;stroke:none"
        d="m 15362.7,5331.2 c -19.6,-84.3 -95.9,-147.9 -185.5,-154.7 -126.3,-10 -254.7,-18.8 -383.4,-27.2 -22.8,467 -410.2,840 -882.8,840 -487.4,0 -884,-396.6 -884,-883.9 0,-10.9 0.4,-21.6 0.8,-32.4 -1069.5,-23.2 -2160.2,-5.2 -3248.06,52.7 -11.2,478.2 -403.01,863.6 -883.59,863.6 -435.79,0 -798.83,-317 -870.78,-732.4 -480.19,46.8 -829.61,90.7 -1003.94,113.9 -8.79,1.2 -14.78,8.8 -14.78,18 v 554.9 c 0,6.1 2.39,10 5.19,12.9 2.79,3.2 6.79,4.8 11.59,5.1 171.12,11.2 304.26,154 303.45,325.5 l -1.99,525.7 c 0,49.2 39.99,89.6 92.36,89.6 917.56,16.4 1414.14,322.2 1813.15,567.7 223.89,138 417.4,257.1 645.69,303.9 257.51,52.8 576.91,70.8 924.41,52.8 299,-15.2 590.5,-113.6 842.4,-285.1 l 949.1,-646.5 -2220.5,66 v 685.6 c 0,88.4 -71.6,160 -160,160 -88.3,0 -159.9,-71.6 -159.9,-160 v -676 l -1150.65,34.3 c -88.35,1.6 -161.92,-67.1 -164.72,-155.1 -2.41,-88.3 66.77,-161.9 155.13,-164.7 L 10175.2,6647 c 11.5,-2.4 23.9,-4.4 36.3,-4.4 8.8,0 17.6,1.2 26.4,2.8 l 3119.8,-93.1 c 55.1,-13.2 111.1,-25.6 167.9,-35.2 l 1202.2,-202.7 c 288.3,-116.8 383.8,-354.3 415.4,-487 25.2,-104.8 109.6,-181.9 212.7,-199.1 26.8,-101.5 28.8,-201.1 6.8,-297.1" />
      <path id="path46" style="fill:#70cdf6;fill-opacity:1;fill-rule:nonzero;stroke:none"
        d="m 11896.7,10397.3 c -242.6,-370.3 -587.3,-656.1 -1033.9,-856.8 -447,-201.2 -973.51,-301.9 -1579.62,-301.9 H 8115.33 V 7487 H 6219.8 v 6700.9 h 3063.38 c 606.11,0 1132.62,-100.3 1579.62,-301.5 446.6,-201.1 791.3,-488.1 1033.9,-861.5 242.3,-373.5 363.9,-812.1 363.9,-1316.2 0,-504.2 -121.6,-941.6 -363.9,-1311.4 z m 1217.9,5093.6 H 5365.81 c -429.41,0 -778.83,-349.5 -778.83,-778.9 V 6963.3 c 0,-429.4 349.42,-778.9 778.83,-778.9 h 1421.73 c 57.17,56.8 133.14,91.2 215.5,96.4 2.39,0.4 4,2.4 4,4.8 l -2,525.7 c 0,227.1 183.51,411 409.4,411 827.22,14.8 1263.42,283.5 1648.44,520.2 239.09,147.5 465.38,286.7 749.25,344.7 287.47,59.1 625.67,79.1 1004.77,59.1 357.4,-18 705.2,-135.5 1005.9,-340.2 l 959.1,-653.3 c 241.1,-164.3 509.4,-271.9 796.5,-320.3 l 293,-49.5 c 14,58.7 22,118.7 22,180.3 V 14712 c 0,429.4 -349.4,778.9 -778.8,778.9" />
      <path id="path48" style="fill:#70cdf6;fill-opacity:1;fill-rule:nonzero;stroke:none"
        d="m 10345.9,11708.7 c 0,-312.7 -99.2,-553.8 -297.1,-722.9 -197.89,-169.1 -491.36,-253.5 -880.77,-253.5 h -1052.7 v 1962.3 h 1052.7 c 389.41,0 682.88,-86 880.77,-258.3 197.9,-172.3 297.1,-415 297.1,-727.6" />
      <path id="path50" style="fill:#29333f;fill-opacity:1;fill-rule:nonzero;stroke:none"
        d="m 8115.13,12694.6 h 1053.06 c 389.21,0 682.85,-86.1 880.71,-258.4 197.8,-172.4 296.8,-415 296.8,-727.6 0,-312.8 -99,-553.8 -296.8,-722.8 -197.86,-169.2 -491.5,-253.7 -880.71,-253.7 H 8115.13 Z m 0,-3455.9 h 1167.95 c 606.24,0 1132.72,100.5 1579.62,301.5 446.6,201.1 791.2,486.6 1033.9,856.8 242.4,370.1 363.8,807.4 363.8,1311.6 0,504.1 -121.4,942.9 -363.8,1316.3 -242.7,373.4 -587.3,660.5 -1033.9,861.6 -446.9,201 -973.38,301.5 -1579.62,301.5 H 6219.63 V 7486.8 h 1895.5 v 1751.9" />
      <path id="path52" style="fill:#29333f;fill-opacity:1;fill-rule:nonzero;stroke:none"
        d="m 15362.5,5331.2 c -19.5,-84.3 -95.7,-148.1 -185.2,-154.9 -126.3,-9.8 -254.7,-18.6 -383.4,-27.1 -23,467.1 -410.2,840.1 -883,840.1 -487.5,0 -884,-396.7 -884,-884.2 0,-10.8 0.4,-21.5 0.8,-32.2 -1069.5,-23.1 -2160.2,-5.4 -3247.98,52.9 -11.05,478 -403.01,863.5 -883.57,863.5 -435.83,0 -798.75,-317.1 -870.84,-732.7 -480.11,46.8 -829.46,90.8 -1003.9,114.2 -8.68,1.2 -14.96,8.7 -14.96,17.9 v 554.8 c 0,6.1 2.5,10 5.35,13 2.93,3.2 6.68,4.9 11.55,5.2 171.12,11 304.47,154 303.65,325.5 l -2.17,525.6 c 0,49.3 40.13,89.5 92.33,89.5 917.6,16.5 1414.18,322.2 1813.17,567.9 223.96,137.9 417.38,256.9 645.71,303.7 257.36,52.7 576.96,71.1 924.46,53.1 299,-15.2 590.3,-113.9 842.2,-285.3 l 949.4,-646.6 -2220.7,66.2 v 685.5 c 0,88.3 -71.6,159.9 -159.9,159.9 -88.3,0 -159.9,-71.6 -159.9,-159.9 v -676 l -1150.69,34.3 c -88.39,1.8 -161.99,-66.9 -164.61,-155.1 -2.63,-88.3 66.81,-162 155.09,-164.6 l 1283.81,-38.3 c 11.7,-2.7 23.8,-4.5 36.3,-4.5 9,0 17.7,1.2 26.3,2.7 l 3119.7,-92.9 c 55.4,-13.6 111.2,-25.8 167.9,-35.3 l 1202.2,-202.6 c 288.6,-117.1 384.2,-354.4 415.7,-487.3 25.1,-104.7 109.5,-181.7 212.7,-198.8 26.6,-101.6 28.8,-201.3 6.5,-297.2 z m -1451.6,-790.3 c -311.1,0 -564.2,253.1 -564.2,564.2 0,311.2 253.1,564.3 564.2,564.3 311.2,0 564.3,-253.1 564.3,-564.3 0,-311.1 -253.1,-564.2 -564.3,-564.2 z m -5014.75,0 c -311.12,0 -564.25,253.1 -564.25,564.2 0,311.2 253.13,564.3 564.25,564.3 311.13,0 564.23,-253.1 564.23,-564.3 0,-311.1 -253.1,-564.2 -564.23,-564.2 z M 4586.86,6963.1 v 7748.8 c 0,429.4 349.39,778.8 778.83,778.8 h 7748.81 c 429.4,0 778.8,-349.4 778.8,-778.8 V 6963.1 c 0,-61.3 -7.9,-121.4 -21.8,-180 l -293.1,49.4 c -287.2,48.2 -555.2,156 -796.7,320.4 l -959,653.2 c -300.5,204.4 -648.3,322.1 -1005.8,340.3 -379.2,19.7 -717.4,-0.2 -1005.01,-59.1 -283.73,-58.1 -509.83,-197.3 -749.23,-344.7 -384.88,-237 -821.13,-505.5 -1648.39,-520.5 -225.68,0 -409.28,-183.6 -409.28,-410.8 l 2.16,-525.6 c 0,-2.6 -1.83,-4.7 -4.29,-4.8 -82.09,-5.3 -158.09,-39.9 -215.23,-96.7 H 5365.69 c -429.44,0 -778.83,349.5 -778.83,778.9 z M 15650.1,5762.2 c -30,94.8 -109.8,162.6 -206,178.8 -49.5,175.3 -197.2,517.1 -616.1,677.7 -10,3.8 -20.2,6.7 -30.7,8.4 l -609.3,102.7 c 16.5,76.2 25.2,154.1 25.2,233.3 v 7748.8 c 0,605.8 -492.9,1098.7 -1098.7,1098.7 H 5365.69 c -605.81,0 -1098.68,-492.9 -1098.68,-1098.7 V 6963.1 c 0,-605.8 492.87,-1098.7 1098.68,-1098.7 H 6686.6 v -475.7 c 0,-169 126,-313 292.68,-334.9 219.44,-29.4 573.79,-73 1049.37,-118.8 79.57,-406.3 438.21,-713.9 867.5,-713.9 383.43,0 710.49,245.4 832.72,587.3 796.73,-43.3 1595.23,-65.7 2386.23,-65.7 329.7,0 658,4.4 984.4,11.9 136,-313.6 448.5,-533.5 811.4,-533.5 389.9,0 721.5,253.7 838.7,604.7 151.7,9.7 303.5,20.1 452.2,31.6 230.9,17.7 420.7,179 472.3,401.5 38.2,164.2 30.1,333.6 -24,503.3" />
      <path id="path54" style="fill:#29333f;fill-opacity:1;fill-rule:nonzero;stroke:none"
        d="m 8896.15,5053 c -28.74,0 -52.12,23.4 -52.12,52.1 0,28.8 23.38,52.2 52.12,52.2 28.74,0 52.13,-23.4 52.13,-52.2 0,-28.7 -23.39,-52.1 -52.13,-52.1 z m 0,424.1 c -205.1,0 -371.98,-166.9 -371.98,-372 0,-205.1 166.88,-371.9 371.98,-371.9 205.1,0 371.98,166.8 371.98,371.9 0,205.1 -166.88,372 -371.98,372" />
      <path id="path56" style="fill:#29333f;fill-opacity:1;fill-rule:nonzero;stroke:none"
        d="m 13910.9,5053 c -28.7,0 -52.1,23.4 -52.1,52.1 0,28.8 23.4,52.2 52.1,52.2 28.8,0 52.2,-23.4 52.2,-52.2 0,-28.7 -23.4,-52.1 -52.2,-52.1 z m 0,424.1 c -205.1,0 -371.9,-166.9 -371.9,-372 0,-205.1 166.8,-371.9 371.9,-371.9 205.2,0 372,166.8 372,371.9 0,205.1 -166.8,372 -372,372" />
    </g>
  </g>
</svg>